<?xml version="1.0" encoding="utf-8"?>
<!DOCTYPE svg PUBLIC "-//W3C//DTD SVG 1.0//EN" "http://www.w3.org/TR/2001/REC-SVG-20010904/DTD/svg10.dtd">
<svg version="1.0" xmlns="http://www.w3.org/2000/svg" width="1043px" height="227px" viewBox="0 0 1043 227" preserveAspectRatio="xMidYMid meet">
 <g fill="#ffffff">
  <path d="M68.73 225.79 c-8.36 -1.65 -13.37 -3.35 -21.26 -7.13 -23.57 -11.24 -39.77 -31.79 -46.34 -58.76 -1.13 -4.63 -1.13 -5.10 -1.13 -25.32 l0 -20.64 1.37 -5.34 c8.31 -32.83 31.79 -56.45 63.58 -63.96 9.16 -2.17 15.07 -2.69 26.93 -2.46 9.16 0.19 11.86 0.38 17.38 1.46 18.14 3.50 32.36 11.38 43.36 24.19 3.50 4.06 3.73 4.49 3.73 6.47 0 1.80 -0.24 2.31 -1.37 3.26 -0.76 0.61 -6.14 5.62 -12 11.15 -12.71 11.95 -12.42 11.81 -16.20 7.09 -4.06 -5.05 -9.73 -9.64 -15.54 -12.47 -7.46 -3.64 -12 -4.68 -20.55 -4.68 -7.51 0.05 -11.10 0.71 -18.28 3.59 -15.64 6.19 -26.41 20.17 -30.66 39.63 -0.43 1.94 -0.85 6.75 -0.99 10.63 -0.19 5.81 -0.09 8.12 0.71 12.75 3.97 23.15 17.67 39.11 37.88 44.21 7.94 1.98 14.74 1.98 22.86 -0.09 4.68 -1.18 11.67 -4.44 15.59 -7.23 2.98 -2.13 8.93 -8.03 10.39 -10.30 0.66 -1.04 1.23 -1.32 2.50 -1.32 1.42 0 2.31 0.71 7.84 6.05 3.45 3.31 8.83 8.41 12.05 11.38 5.53 5.15 5.76 5.48 5.76 7.27 0 2.41 -2.13 5.20 -8.50 11.34 -10.68 10.30 -22.86 16.30 -39.54 19.46 -5.76 1.09 -33.77 0.94 -39.58 -0.24z"/>
  <path d="M238.03 225.56 c-17.86 -3.73 -33.02 -11.90 -45.11 -24.37 -16.06 -16.63 -23.85 -36.33 -24.61 -62.54 -0.28 -11.05 0.14 -16.44 2.03 -25.74 2.88 -13.94 8.79 -27.02 17.10 -38.03 3.21 -4.25 10.20 -11.29 14.69 -14.79 11.71 -9.21 26.59 -15.30 42.23 -17.38 8.79 -1.18 24.04 -0.71 31.98 0.99 8.22 1.70 14.74 4.02 21.68 7.56 23.85 12.28 39.40 35.99 44.03 67.08 0.94 6.42 1.80 26.83 1.18 29.19 l-0.28 1.28 -65.90 0 c-63.30 0 -65.90 0.05 -65.90 0.85 0 1.51 1.89 8.22 3.35 11.86 3.35 8.36 10.30 17.15 17.67 22.20 9.83 6.80 23.43 10.58 35.14 9.78 8.31 -0.57 20.64 -3.92 27.92 -7.61 4.11 -2.08 12.61 -7.75 14.36 -9.64 1.09 -1.13 1.80 -1.46 3.16 -1.46 l1.80 0 8.27 12.19 c9.97 14.64 9.87 14.27 5.39 18.19 -9.78 8.55 -22.15 14.93 -35.85 18.47 -11.62 3.02 -12.52 3.12 -31.55 3.07 -16.39 0 -17.57 -0.09 -22.77 -1.13z m65.42 -108.50 c-0.71 -4.53 -2.69 -11.24 -4.44 -14.93 -7.94 -16.63 -23.10 -26.12 -41.81 -26.17 -23.52 0 -41.90 16.34 -46.34 41.33 l-0.28 1.75 46.58 0 46.58 0 -0.28 -1.98z"/>
  <path d="M593.06 225.75 c-14.17 -3.50 -23.90 -13.46 -27.49 -28.11 l-1.28 -5.15 -0.14 -81.82 -0.19 -81.86 4.87 -3.97 c2.69 -2.17 10.72 -8.69 17.86 -14.41 l12.99 -10.44 2.50 0 2.46 0 0 23.15 0 23.15 17.48 0 17.48 0 0 17.95 0 17.95 -17.48 0 -17.53 0 0.14 47.62 0.14 47.57 1.04 2.69 c3.92 10.25 12.47 13.32 23.52 8.46 1.28 -0.57 3.02 -1.56 3.87 -2.22 1.09 -0.85 2.03 -1.13 3.07 -1.04 1.32 0.14 1.61 0.38 2.08 2.03 0.33 1.04 2.17 7.23 4.16 13.75 1.98 6.52 3.59 12.71 3.59 13.79 0 1.75 -0.24 2.08 -2.46 3.92 -2.93 2.31 -8.60 5.10 -13.60 6.61 -3.31 0.99 -4.53 1.09 -18.42 1.18 -13.56 0.14 -15.21 0.09 -18.66 -0.80z"/>
  <path d="M926.56 226.46 c-0.52 -0.14 -3.12 -0.66 -5.76 -1.18 -20.45 -4.02 -39.82 -16.91 -51.39 -34.29 -10.25 -15.35 -15.54 -32.50 -16.16 -52.58 -0.52 -16.86 1.51 -28.63 7.42 -43.46 4.30 -10.77 10.30 -19.70 19.13 -28.58 13.51 -13.56 29.15 -20.93 50.12 -23.67 9.12 -1.18 24.56 -0.76 33.35 0.94 31.22 5.95 54.80 26.41 64.81 56.26 3.59 10.72 5.01 18.99 5.34 31.51 0.47 17.76 -2.08 31.93 -8.41 46.29 -6.24 14.22 -17.48 27.35 -30.66 35.90 -8.08 5.24 -15.78 8.50 -26.69 11.38 l-5.67 1.46 -17.24 0.09 c-9.49 0.05 -17.67 0 -18.19 -0.09z m21.02 -35.62 c10.34 -1.28 19.04 -5.29 26.45 -12.14 17.71 -16.39 22.48 -49.13 10.68 -72.93 -3.16 -6.33 -5.24 -9.21 -10.20 -14.17 -9.07 -9.12 -20.50 -13.60 -33.02 -13.04 -17.10 0.76 -31.32 10.58 -39.49 27.21 -8.98 18.28 -8.88 39.92 0.24 58.39 8.17 16.53 21.68 25.51 40.62 27.11 0.43 0 2.55 -0.19 4.72 -0.43z"/>
  <path d="M369.16 217.20 c-0.19 -3.45 -0.24 -27.63 -0.09 -53.76 0.19 -45.63 0.24 -47.66 1.18 -52.67 3.59 -18.85 13.46 -34.44 29.33 -46.25 16.34 -12.14 35.71 -19.70 56.50 -22.01 6.47 -0.71 19.46 -0.57 25.13 0.28 26.55 3.92 40.62 19.93 44.07 50.02 0.33 3.31 0.71 93.48 0.47 127.21 l0 3.40 -20.31 0 -20.31 0 0 -54.65 c0 -56.31 -0.19 -62.26 -1.89 -69.34 -3.07 -12.42 -10.68 -18.42 -23.15 -18.33 -20.55 0.19 -42.28 17.53 -48.37 38.50 -2.08 7.13 -2.17 9.97 -2.17 58.15 l0 45.68 -20.03 0 -20.03 0 -0.33 -6.24z"/>
  <path d="M675.49 134.86 l0 -88.57 20.55 0 20.55 0 0 88.57 0 88.57 -20.55 0 -20.55 0 0 -88.57z"/>
  <path d="M756.03 221.45 c-0.19 -1.13 -0.19 -26.36 -0.09 -56.12 0.24 -58.29 0.09 -55.74 2.74 -65.05 5.43 -19.37 19.23 -35.19 40.10 -45.91 14.27 -7.37 28.77 -11.01 48.09 -12.14 l5.76 -0.33 0 19.60 0 19.60 -6.71 0.28 c-8.36 0.38 -13.56 1.32 -18.99 3.50 -15.82 6.28 -26.97 19.79 -29.76 35.99 -0.66 3.92 -0.76 10.53 -0.76 53.52 l0 49.03 -20.03 0 -20.08 0 -0.28 -1.98z"/>
  <path d="M1018.29 51.02 c-6.42 -1.65 -11.90 -6.90 -13.75 -13.18 -0.99 -3.40 -0.99 -10.44 0 -13.79 2.03 -6.80 7.42 -11.76 14.27 -13.23 3.78 -0.76 10.53 -0.33 13.89 0.94 3.31 1.28 7.04 4.53 8.93 7.79 l1.37 2.41 0 8.98 0 8.98 -1.37 2.36 c-1.80 3.16 -4.68 5.67 -8.46 7.46 -2.74 1.28 -3.68 1.46 -8.08 1.56 -2.74 0.09 -5.81 -0.05 -6.80 -0.28z m10.30 -6.52 l2.36 -0.76 -1.65 -0.28 c-1.46 -0.19 -1.94 -0.66 -4.16 -4.25 -3.40 -5.43 -3.87 -5.48 -3.87 -0.05 l0 4.30 -1.98 0 c-2.46 0.05 -1.70 0.61 2.08 1.61 2.65 0.71 3.50 0.66 7.23 -0.57z m-13.75 -24.14 c-0.43 -0.43 -2.41 2.22 -3.87 5.15 -2.31 4.72 -1.42 9.92 2.60 14.69 l1.32 1.56 0.14 -10.58 c0.05 -5.76 0 -10.68 -0.19 -10.82z m21.35 17.67 c1.84 -3.16 2.60 -6.61 2.03 -9.07 -1.37 -6.28 -5.43 -10.58 -11.48 -12.14 -2.93 -0.76 -5.67 -0.47 -8.22 0.85 -1.13 0.57 -0.66 0.66 4.63 0.85 6.61 0.19 8.36 0.80 9.92 3.35 0.66 1.09 0.94 2.36 0.94 4.49 0 3.45 -0.85 5.86 -2.50 6.94 l-1.18 0.76 1.94 3.21 c1.09 1.80 2.13 3.16 2.31 3.02 0.19 -0.09 0.90 -1.13 1.61 -2.27z m-11.05 -9.21 c4.02 -1.13 2.88 -4.25 -1.51 -4.25 l-2.36 0 0 2.03 c0 2.93 0.43 3.16 3.87 2.22z"/>
 </g>
 <g fill = "transparent">
  <path d="M0.05 186.02 l0.05 -40.77 1.09 6.38 c5.34 30.37 21.97 53.28 47.71 65.66 10.49 5.05 18.52 7.13 34.25 8.93 2.17 0.24 -13.04 0.43 -39.77 0.47 l-43.36 0.05 0.05 -40.72z"/>
  <path d="M97.31 226.03 c18.14 -2.27 28.48 -5.76 40.15 -13.51 4.63 -3.07 15.64 -13.51 17.01 -16.16 0.66 -1.32 0.66 -1.37 -1.94 -3.78 -1.42 -1.37 -6.90 -6.57 -12.19 -11.62 l-9.64 -9.16 -0.99 1.37 c-1.84 2.60 -7.61 8.31 -10.49 10.39 -9.07 6.52 -22.15 9.92 -33.26 8.69 -8.17 -0.90 -14.17 -2.79 -20.45 -6.33 -13.56 -7.75 -22.39 -21.35 -25.46 -39.25 -0.80 -4.87 -0.90 -6.94 -0.71 -14.41 0.19 -5.29 0.57 -10.06 1.04 -12.05 4.39 -19.51 15.07 -33.21 30.61 -39.40 7.61 -3.02 10.63 -3.59 19.70 -3.59 10.11 0 14.12 0.85 21.97 4.68 5.81 2.83 11.48 7.42 15.54 12.47 1.28 1.61 2.41 2.93 2.50 2.93 0.09 0 5.01 -4.53 10.86 -10.01 5.86 -5.53 11.24 -10.53 12 -11.15 0.76 -0.61 1.37 -1.42 1.37 -1.84 0 -0.99 -6.80 -8.79 -10.25 -11.81 -10.44 -9.07 -22.25 -14.64 -36.85 -17.43 -8.79 -1.70 -22.67 -2.08 -31.08 -0.90 -19.93 2.74 -36.04 10.16 -49.13 22.53 -14.17 13.42 -23.90 32.64 -26.88 53.19 -0.57 4.06 -0.66 -2.27 -0.71 -57.63 l-0.05 -62.26 521.50 0 521.50 0 0 13.84 c-0.05 13.70 -0.05 13.79 -0.85 11.43 -2.74 -7.94 -8.64 -12.66 -16.63 -13.32 -11.01 -0.94 -20.31 7.79 -20.31 18.99 0 7.65 4.11 14.03 11.29 17.43 2.83 1.32 3.54 1.46 7.61 1.46 4.06 0 4.77 -0.14 7.61 -1.46 5.29 -2.50 8.50 -6.09 10.44 -11.76 0.80 -2.27 0.80 1.98 0.85 93.91 l0 96.22 -48.28 -0.05 c-26.59 -0.05 -47.90 -0.14 -47.38 -0.24 0.52 -0.09 3.78 -0.47 7.23 -0.90 7.09 -0.85 15.30 -2.74 21.59 -4.96 20.55 -7.27 38.55 -24.09 47.43 -44.31 6.14 -13.98 8.93 -28.86 8.41 -44.88 -0.57 -17.38 -4.91 -33.16 -12.80 -46.53 -12.57 -21.35 -32.36 -35.10 -57.35 -39.82 -8.83 -1.65 -21.78 -2.08 -30.52 -0.94 -21.02 2.74 -36.61 10.11 -50.12 23.67 -11.01 11.01 -17.62 22.15 -22.48 37.98 -5.34 17.29 -5.53 38.36 -0.47 56.26 7.23 25.56 22.53 44.50 44.69 55.27 8.88 4.30 17.43 6.75 28.06 8.08 2.50 0.28 5.48 0.71 6.66 0.90 1.18 0.19 -71.85 0.38 -162.26 0.38 -135.95 0 -163.49 -0.14 -159.19 -0.61 12.90 -1.51 21.02 -4.30 26.64 -9.16 l2.13 -1.80 -1.09 -3.73 c-1.46 -4.87 -7.09 -23.38 -7.37 -24.19 -0.19 -0.47 -0.66 -0.28 -1.80 0.57 -3.68 2.83 -9.26 4.53 -14.79 4.53 -7.89 0 -12.61 -3.26 -15.45 -10.77 l-1.04 -2.69 -0.14 -48.99 -0.14 -49.03 17.53 0 17.48 0 0 -16.53 0 -16.53 -17.48 0 -17.48 0 0 -23.62 c0 -14.69 -0.19 -23.62 -0.47 -23.62 -0.43 0 -33.54 26.36 -36.04 28.72 l-1.32 1.23 0.19 80.35 0.14 80.30 1.28 5.15 c2.93 11.90 9.35 20.17 19.46 25.08 4.91 2.41 8.17 3.31 16.06 4.49 5.53 0.80 1.04 0.85 -166.28 0.85 -94.57 -0.05 -170.15 -0.19 -167.98 -0.43 24.75 -2.36 44.78 -10.11 58.81 -22.77 l2.83 -2.50 -7.94 -11.81 c-4.39 -6.47 -8.27 -12.05 -8.60 -12.42 -0.52 -0.57 -0.94 -0.38 -2.74 1.28 -2.65 2.41 -9.78 7.18 -14.03 9.31 -11.48 5.81 -27.96 8.83 -39.92 7.32 -14.03 -1.75 -24.85 -6.99 -33.63 -16.30 -7.27 -7.70 -12.09 -17.86 -13.56 -28.44 l-0.33 -2.50 66.18 0 66.18 0 0.28 -1.28 c0.57 -2.17 -0.24 -19.98 -1.18 -26.41 -4.58 -30.99 -20.17 -54.75 -44.03 -67.03 -6.94 -3.59 -13.46 -5.86 -21.68 -7.56 -7.98 -1.65 -20.74 -2.13 -29.15 -0.99 -37.74 5.01 -66.13 31.93 -74.02 70.19 -1.89 9.12 -2.31 14.79 -1.98 24.33 0.85 24.99 8.88 44.88 24.56 61.13 14.64 15.12 32.55 23.34 56.97 26.22 4.72 0.57 -5.24 0.66 -76.76 0.66 -69.96 0 -81.44 -0.09 -77.23 -0.61z m310.82 -49.69 c0 -48.18 0.09 -51.02 2.17 -58.15 5.24 -18.09 22.34 -33.87 40.81 -37.70 4.82 -1.04 13.32 -1.13 17.01 -0.24 11.20 2.74 16.49 10.68 17.95 26.97 0.28 3.35 0.47 26.26 0.47 60.13 l0 54.65 18.89 0 18.89 0 0 -3.40 c0.19 -46.48 -0.14 -121.07 -0.52 -124.38 -3.83 -34.11 -22.06 -50.78 -55.50 -50.78 -23.95 0 -47.85 7.98 -67.31 22.48 -15.87 11.86 -25.74 27.40 -29.33 46.25 -0.94 4.96 -0.99 7.09 -1.18 51.25 -0.14 25.32 -0.09 48.89 0.09 52.34 l0.33 6.24 18.61 0 18.61 0 0 -45.68z m307.04 -41.47 l0 -87.15 -19.13 0 -19.13 0 0 87.15 0 87.15 19.13 0 19.13 0 0 -87.15z m79.83 38.12 c0 -42.99 0.09 -49.60 0.76 -53.52 2.79 -16.20 13.94 -29.71 29.76 -35.99 5.43 -2.17 10.63 -3.12 18.99 -3.50 l6.71 -0.28 0 -18.14 0 -18.19 -4.11 0.33 c-19.60 1.46 -32.97 4.91 -46.91 12.09 -23.48 12.05 -36.99 29.24 -41.90 53.19 -0.66 3.21 -0.76 10.72 -0.94 56.35 -0.09 28.96 -0.09 53.57 0.09 54.70 l0.28 1.98 18.66 0 18.61 0 0 -49.03z"/>
  <path d="M937.42 192.21 c-12.42 -1.61 -23 -7.51 -30.75 -17.15 -12.33 -15.40 -16.34 -41.29 -9.54 -62.16 2.83 -8.83 7.13 -16.16 12.85 -22.15 5.81 -6.05 11.71 -9.54 20.55 -12.19 5.48 -1.65 15.92 -2.08 21.73 -0.90 9.78 1.98 16.96 5.76 23.67 12.52 7.89 7.89 12.61 16.77 15.16 28.53 1.98 9.12 2.08 21.49 0.19 31.41 -3.87 20.31 -17.24 35.95 -34.81 40.72 -6.52 1.75 -12.57 2.17 -19.04 1.37z"/>
  <path d="M208.79 119.98 c0 -1.32 1.94 -10.11 2.83 -12.75 5.20 -15.54 16.39 -26.59 31.27 -30.89 10.82 -3.12 24.04 -2.41 34.58 1.89 14.83 6.05 25.89 21.68 27.49 38.97 l0.33 3.26 -48.28 0 c-30.66 0 -48.23 -0.19 -48.23 -0.47z"/>
  <path d="M1019.90 46.53 c-4.58 -1.28 -7.79 -4.06 -10.30 -8.83 -1.13 -2.17 -1.28 -3.07 -1.32 -6.75 0 -3.73 0.14 -4.58 1.37 -7.04 3.45 -7.09 10.77 -10.49 18.23 -8.60 12.71 3.21 16.39 19.04 6.52 27.92 -3.78 3.35 -9.54 4.68 -14.50 3.31z m-0.05 -8.74 l0 -4.25 2.03 0 2.03 0 2.60 4.16 c2.41 3.87 2.65 4.11 4.35 4.25 0.94 0.09 1.75 0 1.75 -0.24 0 -0.19 -1.13 -2.17 -2.55 -4.39 l-2.55 -3.97 1.70 -0.99 c4.44 -2.46 4.44 -9.07 0 -11.38 -1.65 -0.90 -9.21 -1.51 -11.48 -0.94 l-1.18 0.28 0 10.86 0 10.86 1.65 0 1.65 0 0 -4.25z"/>
  <path d="M1020.18 30.37 c-0.47 -0.43 -0.43 -7.23 0.05 -7.27 0.66 -0.05 3.64 -0.05 5.43 0 2.17 0.05 3.64 1.42 3.64 3.40 0 2.13 -0.76 3.16 -2.74 3.73 -1.98 0.52 -5.90 0.66 -6.38 0.14z"/>
 </g>
</svg>