<svg width="649" height="103" viewBox="0 0 649 103" fill="none" xmlns="http://www.w3.org/2000/svg">
<g clip-path="url(#clip0_3106_35)">
<path fill-rule="evenodd" clip-rule="evenodd" d="M624.6 11.85V23.7H648.09V0H624.6V11.85ZM0.200012 90.98V102.86L8.97001 102.73C13.79 102.66 19.12 102.6 20.82 102.6H23.9V79.11H0.200012V90.99" fill="#EA4333"/>
<path fill-rule="evenodd" clip-rule="evenodd" d="M93.21 5.86998L87.34 11.74V90.64L93.31 96.61L99.28 102.58H147.76V78.95L139.48 78.82C134.93 78.75 126.66 78.69 121.11 78.69H111.02V63.43H136.92V39.74H111.02V23.62L129.34 23.7L147.66 23.78L147.71 11.88L147.76 -0.0200195H99.07L93.2 5.84998M443.55 5.86998L437.68 11.74V90.64L443.65 96.61L449.62 102.58H498.1V78.95L489.82 78.82C485.27 78.75 477 78.69 471.45 78.69H461.36V63.43H487.26V39.74H461.36V23.62L479.68 23.7L498 23.78L498.05 11.88L498.1 -0.0200195H449.41L443.54 5.84998M519.64 5.86998L513.77 11.74L513.82 56.91L513.87 102.08L525.77 102.13L537.67 102.18V23.69H569.79V-1.95317e-05H525.52L519.65 5.86998M581.64 24.44V48.88L592.28 61.73L602.91 74.58L602.97 88.53L603.03 102.48L614.93 102.53L626.83 102.58V74.72L637.47 61.84L648.11 48.96V23.68H624.62L624.57 11.78C624.53 3.68998 624.5 6.33998 624.46 20.06L624.41 40.24L619.75 45.9C617.19 49.01 615.03 51.57 614.96 51.57C614.89 51.57 612.7 48.99 610.09 45.83L605.35 40.08V-1.95317e-05H581.66V24.44M0.05 51.45C0.08 79.64 0.12 97.39 0.15 90.9L0.2 79.1H23.89V102.58L17.82 102.64C14.48 102.67 22.72 102.72 36.14 102.74L60.54 102.79L66.41 96.92L72.28 91.05V11.94L66.41 6.06998L60.53 0.19998H0L0.05 51.45ZM161.02 45.53V90.86L166.89 96.73L172.76 102.6H216.83V78.91H184.71V0.19998H161.02V45.53ZM228.28 51.5V102.8H251.97V63.45H273.05V102.8L284.95 102.75L296.85 102.7V0.49998L284.95 0.44998L273.05 0.39998V39.75H251.97V0.19998H228.28V51.5ZM312.6 51.6V102.8L324.5 102.75L336.4 102.7V0.49998L324.5 0.44998L312.6 0.39998V51.6ZM353.16 36.89V73.38L365.23 87.99L377.29 102.6H395.65L407.73 87.99L419.81 73.38V36.89L419.82 0.39998H395.93V64.84L391.28 70.47C388.72 73.56 386.56 76.1 386.48 76.1C386.4 76.1 384.24 73.58 381.69 70.49L377.05 64.88L377 32.69L376.95 0.49998L365.05 0.44998L353.15 0.39998V36.89M23.89 51.34V78.85L24.64 78.97C25.05 79.04 30.61 79.1 36.99 79.1H48.58V51.6V24.09H37.77C31.82 24.09 26.27 24.03 25.42 23.96L23.88 23.83V51.34" fill="white"/>
</g>
<defs>
<clipPath id="clip0_3106_35">
<rect width="648.09" height="102.86" fill="white"/>
</clipPath>
</defs>
</svg>
