<svg width="360" height="111" viewBox="0 0 360 111" fill="none" xmlns="http://www.w3.org/2000/svg">
<path d="M299.75 38.8601L314.64 55.2701L328.975 38.8601H359.585L329.67 72.5001L359.995 106.415H328.15L313.4 89.8751L298.785 106.415H268.035L298.095 72.6401L268.035 38.8601H299.75Z" fill="#FF5900"/>
<path d="M268.035 38.86V61.685H233.99V82.63H268.035V106.415H208.97V0H268.035V23.72H233.99V38.86H268.035Z" fill="#FF5900"/>
<path d="M184.055 0V43.55H183.78C178.26 37.21 171.37 35.005 163.375 35.005C146.995 35.005 134.655 46.145 130.325 60.865C125.38 44.645 112.64 34.7 93.75 34.7C78.41 34.7 66.295 41.585 59.975 52.805V38.86H28.265V23.72H62.87V0H0V106.415H28.265V61.685H56.44C55.6 64.97 55.15 68.49 55.15 72.205C55.15 94.4 72.11 109.98 93.75 109.98C111.95 109.98 123.945 101.435 130.285 85.86H106.06C102.785 90.545 100.3 91.93 93.75 91.93C86.155 91.93 79.605 85.305 79.605 77.45H128.93C131.07 95.08 144.805 110.285 163.65 110.285C171.78 110.285 179.225 106.285 183.775 99.535H184.05V106.425H208.965V0H184.055ZM80.395 62C81.965 55.24 87.21 50.825 93.755 50.825C100.96 50.825 105.935 55.105 107.245 62C107.795 62 80.395 62 80.395 62ZM168.93 90.215C159.745 90.215 154.035 81.655 154.035 72.72C154.035 63.17 159 53.985 168.93 53.985C179.225 53.985 183.325 63.17 183.325 72.72C183.325 81.775 178.98 90.215 168.93 90.215Z" fill="#2A007C"/>
</svg>
