<svg width="229" height="51" viewBox="0 0 229 51" fill="none" xmlns="http://www.w3.org/2000/svg">
<g clip-path="url(#clip0_3106_26)">
<path d="M69.72 36.41V14.23H75.67L83.2 30.8L90.62 14.23H96.32V36.41H91.42V23.5L85.76 36.41H80.53L74.8 23.57V36.41H69.72Z" fill="white"/>
<path d="M116.05 27.8199L111.95 18.42L107.95 27.8199H116.05ZM104.25 36.4H98.48L108.42 14.2H115.52L125.52 36.3799H119.83L117.83 31.96H106.18L104.25 36.4Z" fill="white"/>
<path d="M127.8 36.41V14.23H149.13V18.66H132.95V23.07H146.82V27.4H132.95V31.97H149.17V36.41H127.8Z" fill="white"/>
<path d="M158.55 24.4099H169.76V18.6599H158.55V24.4099ZM153.32 36.4099V14.1999H171.17C171.674 14.1459 172.184 14.2045 172.662 14.3716C173.141 14.5386 173.576 14.81 173.937 15.166C174.298 15.522 174.575 15.9538 174.748 16.4301C174.922 16.9064 174.987 17.4153 174.94 17.92V25.37C174.94 27.08 173.41 28.6299 170.45 28.6299H169.93L175.13 36.37H169.39L164.46 28.7899H158.55V36.37L153.32 36.4099Z" fill="white"/>
<path d="M184.35 36.4099H182.58C180.27 36.4099 179.16 35.0899 179.16 33.1599V30.2599H184.35V31.9799H195.35V27.4399H182.72C182.276 27.4715 181.829 27.4112 181.409 27.2626C180.989 27.114 180.604 26.8803 180.279 26.5763C179.953 26.2722 179.694 25.9042 179.517 25.4953C179.34 25.0864 179.249 24.6455 179.25 24.1999V17.6199C179.248 17.1636 179.339 16.7117 179.516 16.2912C179.693 15.8707 179.954 15.4903 180.281 15.1728C180.609 14.8554 180.998 14.6073 181.423 14.4436C181.849 14.2798 182.304 14.2037 182.76 14.2199H197.25C197.706 14.2128 198.159 14.3013 198.58 14.4798C199 14.6582 199.378 14.9227 199.69 15.2562C200.002 15.5896 200.24 15.9847 200.39 16.4159C200.54 16.8471 200.598 17.3049 200.56 17.7599V20.4099H195.41V18.6599H184.41V23.0299H197.02C197.496 23.0069 197.971 23.0839 198.415 23.2558C198.859 23.4277 199.263 23.6908 199.599 24.0281C199.935 24.3654 200.197 24.7694 200.368 25.214C200.539 25.6587 200.614 26.1342 200.59 26.6099V32.9399C200.64 33.407 200.585 33.8795 200.429 34.3227C200.274 34.7658 200.02 35.1685 199.689 35.5012C199.357 35.8339 198.955 36.0882 198.512 36.2454C198.07 36.4026 197.597 36.4588 197.13 36.4099H184.35Z" fill="white"/>
<path d="M205.51 36.42V14.24H210.8V23.11L220.89 14.24H228.07L216.03 24.54L228.5 36.42H221.07L210.8 26.33V36.42H205.51Z" fill="white"/>
<path d="M5.77001 8.7381e-06H42.25C43.7786 -0.00264961 45.2458 0.601342 46.3294 1.67939C47.4131 2.75744 48.0247 4.22144 48.03 5.75001V44.65C48.0247 46.1786 47.4131 47.6426 46.3294 48.7206C45.2458 49.7987 43.7786 50.4027 42.25 50.4H5.77001C4.24409 50.4027 2.77948 49.7998 1.69769 48.7236C0.615888 47.6474 0.00531988 46.1859 2.38524e-05 44.66V5.76002C-0.00215654 5.00435 0.145169 4.2557 0.433496 3.5572C0.721822 2.85869 1.14545 2.22412 1.68002 1.69001C2.76579 0.607337 4.23669 -0.000444532 5.77001 8.7381e-06Z" fill="#42B0D5"/>
<path d="M31.67 23.7901L41.15 12.0201L41.12 11.9801L27.42 18.5101L24.04 3.84009H23.98L20.6 18.5101L6.90002 11.9801L6.87002 12.0201L16.36 23.7901L2.65002 30.3201L2.67002 30.3601H17.87L14.49 45.0501L14.53 45.0601L24.01 33.2901L33.49 45.0601L33.54 45.0401L30.15 30.3601H45.36L45.37 30.3201L31.67 23.7901Z" fill="white"/>
</g>
<defs>
<clipPath id="clip0_3106_26">
<rect width="228.5" height="50.41" fill="white"/>
</clipPath>
</defs>
</svg>
